JosefinSlabFix-Italic_ik.ufo
<glyph name="numbersign" format="1">
  <advance width="575"/>
  <unicode hex="0023"/>
  <outline>
    <contour>
      <point x="272" y="0" type="line"/>
      <point x="285" y="51"/>
      <point x="309" y="152"/>
      <point x="321" y="203" type="qcurve"/>
      <point x="195" y="203" type="line"/>
      <point x="146" y="0" type="line"/>
      <point x="87" y="0" type="line"/>
      <point x="136" y="203" type="line"/>
      <point x="34" y="203" type="line"/>
      <point x="37" y="217"/>
      <point x="44" y="246"/>
      <point x="48" y="260" type="qcurve"/>
      <point x="150" y="260" type="line"/>
      <point x="158" y="292"/>
      <point x="172" y="355"/>
      <point x="180" y="387" type="qcurve"/>
      <point x="79" y="387" type="line"/>
      <point x="83" y="401"/>
      <point x="89" y="430"/>
      <point x="92" y="444" type="qcurve"/>
      <point x="194" y="444" type="line"/>
      <point x="244" y="648" type="line"/>
      <point x="303" y="648" type="line"/>
      <point x="253" y="444" type="line"/>
      <point x="380" y="444" type="line"/>
      <point x="392" y="496"/>
      <point x="417" y="597"/>
      <point x="430" y="648" type="qcurve"/>
      <point x="489" y="648" type="line"/>
      <point x="438" y="444" type="line"/>
      <point x="554" y="444" type="line"/>
      <point x="550" y="430"/>
      <point x="545" y="401"/>
      <point x="541" y="387" type="qcurve"/>
      <point x="425" y="387" type="line"/>
      <point x="417" y="355"/>
      <point x="402" y="292"/>
      <point x="394" y="260" type="qcurve"/>
      <point x="509" y="260" type="line"/>
      <point x="496" y="203" type="line"/>
      <point x="380" y="203" type="line"/>
      <point x="368" y="152"/>
      <point x="344" y="51"/>
      <point x="331" y="0" type="qcurve"/>
    </contour>
    <contour>
      <point x="239" y="387" type="line"/>
      <point x="231" y="355"/>
      <point x="217" y="292"/>
      <point x="209" y="260" type="qcurve"/>
      <point x="336" y="260" type="line"/>
      <point x="344" y="292"/>
      <point x="358" y="355"/>
      <point x="366" y="387" type="qcurve"/>
    </contour>
  </outline>
</glyph>
<glyph name="plus" format="1">
  <advance width="455"/>
  <unicode hex="002B"/>
  <outline>
    <contour>
      <point x="170" y="51" type="line"/>
      <point x="189" y="205" type="line"/>
      <point x="37" y="205" type="line"/>
      <point x="44" y="261" type="line"/>
      <point x="196" y="261" type="line"/>
      <point x="215" y="414" type="line"/>
      <point x="274" y="414" type="line"/>
      <point x="255" y="261" type="line"/>
      <point x="407" y="261" type="line"/>
      <point x="400" y="205" type="line"/>
      <point x="248" y="205" type="line"/>
      <point x="229" y="51" type="line"/>
    </contour>
  </outline>
</glyph>
<glyph name="four" format="1">
  <advance width="533"/>
  <unicode hex="0034"/>
  <outline>
    <contour>
      <point x="450" y="56" type="line"/>
      <point x="444" y="0" type="line"/>
      <point x="215" y="0" type="line"/>
      <point x="222" y="56" type="line"/>
      <point x="304" y="56" type="line"/>
      <point x="319" y="175" type="line"/>
      <point x="-4" y="175" type="line"/>
      <point x="103" y="296"/>
      <point x="330" y="543"/>
      <point x="437" y="663" type="qcurve"/>
      <point x="385" y="232" type="line"/>
      <point x="482" y="232" type="line"/>
      <point x="475" y="175" type="line"/>
      <point x="377" y="175" type="line"/>
      <point x="362" y="56" type="line"/>
    </contour>
    <contour>
      <point x="359" y="503" type="line"/>
      <point x="331" y="472"/>
      <point x="270" y="403"/>
      <point x="207" y="333"/>
      <point x="146" y="263"/>
      <point x="118" y="232" type="qcurve"/>
      <point x="326" y="232" type="line"/>
    </contour>
  </outline>
</glyph>
<glyph name="five" format="1">
  <advance width="468"/>
  <unicode hex="0035"/>
  <outline>
    <contour>
      <point x="353" y="541" type="line"/>
      <point x="360" y="598" type="line"/>
      <point x="178" y="598" type="line"/>
      <point x="154" y="403" type="line"/>
      <point x="169" y="409"/>
      <point x="199" y="417"/>
      <point x="216" y="417" type="qcurve"/>
      <point x="259" y="417"/>
      <point x="330" y="387"/>
      <point x="380" y="336"/>
      <point x="408" y="268"/>
      <point x="408" y="229" type="qcurve"/>
      <point x="408" y="180"/>
      <point x="367" y="94"/>
      <point x="299" y="29"/>
      <point x="211" y="-8"/>
      <point x="163" y="-8" type="qcurve"/>
      <point x="121" y="-8"/>
      <point x="50" y="23"/>
      <point x="24" y="52" type="qcurve"/>
      <point x="71" y="91" type="line"/>
      <point x="88" y="71"/>
      <point x="139" y="49"/>
      <point x="171" y="49" type="qcurve"/>
      <point x="205" y="49"/>
      <point x="269" y="77"/>
      <point x="319" y="124"/>
      <point x="348" y="186"/>
      <point x="348" y="221" type="qcurve"/>
      <point x="348" y="250"/>
      <point x="327" y="301"/>
      <point x="289" y="338"/>
      <point x="238" y="360"/>
      <point x="208" y="360" type="qcurve"/>
      <point x="178" y="360"/>
      <point x="117" y="342"/>
      <point x="92" y="320" type="qcurve"/>
      <point x="134" y="655" type="line"/>
      <point x="423" y="655" type="line"/>
      <point x="410" y="541" type="line"/>
    </contour>
  </outline>
</glyph>
<glyph name="colon" format="1">
  <advance width="208"/>
  <unicode hex="003A"/>
  <outline>
    <contour>
      <point x="67" y="300" type="qcurve"/>
      <point x="67" y="320"/>
      <point x="97" y="346"/>
      <point x="114" y="346" type="qcurve"/>
      <point x="128" y="346"/>
      <point x="148" y="325"/>
      <point x="148" y="309" type="qcurve"/>
      <point x="148" y="289"/>
      <point x="120" y="264"/>
      <point x="103" y="264" type="qcurve"/>
      <point x="89" y="264"/>
      <point x="67" y="284"/>
    </contour>
    <contour>
      <point x="34" y="36" type="qcurve"/>
      <point x="34" y="56"/>
      <point x="64" y="82"/>
      <point x="81" y="82" type="qcurve"/>
      <point x="95" y="82"/>
      <point x="116" y="61"/>
      <point x="116" y="45" type="qcurve"/>
      <point x="116" y="25"/>
      <point x="87" y="0"/>
      <point x="71" y="0" type="qcurve"/>
      <point x="57" y="0"/>
      <point x="34" y="20"/>
    </contour>
  </outline>
</glyph>
<glyph name="semicolon" format="1">
  <advance width="246"/>
  <unicode hex="003B"/>
  <outline>
    <contour>
      <point x="92" y="288" type="qcurve"/>
      <point x="92" y="308"/>
      <point x="121" y="334"/>
      <point x="138" y="334" type="qcurve"/>
      <point x="152" y="334"/>
      <point x="173" y="313"/>
      <point x="173" y="297" type="qcurve"/>
      <point x="173" y="277"/>
      <point x="144" y="252"/>
      <point x="128" y="252" type="qcurve"/>
      <point x="114" y="252"/>
      <point x="92" y="272"/>
    </contour>
    <contour>
      <point x="135" y="87" type="line"/>
      <point x="121" y="61"/>
      <point x="102" y="27"/>
      <point x="85" y="-3"/>
      <point x="66" y="-37"/>
      <point x="52" y="-63" type="qcurve"/>
      <point x="3" y="-63" type="line"/>
      <point x="16" y="-37"/>
      <point x="33" y="-3"/>
      <point x="47" y="27"/>
      <point x="64" y="61"/>
      <point x="77" y="87" type="qcurve"/>
    </contour>
  </outline>
</glyph>
<glyph name="at" format="1">
  <advance width="934"/>
  <unicode hex="0040"/>
  <outline>
    <contour>
      <point x="225" y="177" type="qcurve"/>
      <point x="225" y="224"/>
      <point x="264" y="308"/>
      <point x="330" y="372"/>
      <point x="415" y="409"/>
      <point x="461" y="409" type="qcurve"/>
      <point x="491" y="409"/>
      <point x="542" y="393"/>
      <point x="579" y="366"/>
      <point x="603" y="333"/>
      <point x="608" y="317" type="qcurve"/>
      <point x="611" y="337"/>
      <point x="618" y="379"/>
      <point x="622" y="400" type="qcurve"/>
      <point x="674" y="400" type="line"/>
      <point x="630" y="51" type="line"/>
      <point x="685" y="51" type="line"/>
      <point x="707" y="51"/>
      <point x="754" y="74"/>
      <point x="791" y="124"/>
      <point x="815" y="202"/>
      <point x="815" y="256" type="qcurve"/>
      <point x="815" y="317"/>
      <point x="773" y="427"/>
      <point x="693" y="511"/>
      <point x="577" y="560"/>
      <point x="504" y="560" type="qcurve"/>
      <point x="409" y="560"/>
      <point x="254" y="489"/>
      <point x="145" y="375"/>
      <point x="86" y="232"/>
      <point x="86" y="160" type="qcurve"/>
      <point x="86" y="92"/>
      <point x="134" y="-25"/>
      <point x="219" y="-113"/>
      <point x="337" y="-163"/>
      <point x="406" y="-163" type="qcurve"/>
      <point x="466" y="-163"/>
      <point x="579" y="-127"/>
      <point x="630" y="-95" type="qcurve"/>
      <point x="637" y="-105"/>
      <point x="649" y="-123"/>
      <point x="657" y="-133" type="qcurve"/>
      <point x="600" y="-173"/>
      <point x="464" y="-215"/>
      <point x="397" y="-215" type="qcurve"/>
      <point x="319" y="-215"/>
      <point x="185" y="-157"/>
      <point x="88" y="-56"/>
      <point x="33" y="79"/>
      <point x="33" y="157" type="qcurve"/>
      <point x="33" y="243"/>
      <point x="104" y="407"/>
      <point x="231" y="534"/>
      <point x="407" y="612"/>
      <point x="512" y="612" type="qcurve"/>
      <point x="596" y="612"/>
      <point x="729" y="555"/>
      <point x="821" y="459"/>
      <point x="870" y="331"/>
      <point x="870" y="261" type="qcurve"/>
      <point x="870" y="192"/>
      <point x="838" y="94"/>
      <point x="784" y="30"/>
      <point x="714" y="0"/>
      <point x="676" y="0" type="qcurve"/>
      <point x="569" y="0" type="line"/>
      <point x="574" y="41" type="line"/>
      <point x="576" y="52"/>
      <point x="579" y="72"/>
      <point x="579" y="81" type="qcurve"/>
      <point x="570" y="64"/>
      <point x="538" y="33"/>
      <point x="495" y="7"/>
      <point x="441" y="-8"/>
      <point x="410" y="-8" type="qcurve"/>
      <point x="368" y="-8"/>
      <point x="300" y="21"/>
      <point x="252" y="71"/>
      <point x="225" y="139"/>
    </contour>
    <contour>
      <point x="281" y="184" type="qcurve"/>
      <point x="281" y="155"/>
      <point x="301" y="104"/>
      <point x="338" y="67"/>
      <point x="389" y="46"/>
      <point x="419" y="46" type="qcurve"/>
      <point x="455" y="46"/>
      <point x="519" y="73"/>
      <point x="567" y="119"/>
      <point x="595" y="182"/>
      <point x="595" y="217" type="qcurve"/>
      <point x="595" y="246"/>
      <point x="575" y="297"/>
      <point x="538" y="334"/>
      <point x="487" y="355"/>
      <point x="456" y="355" type="qcurve"/>
      <point x="420" y="355"/>
      <point x="357" y="328"/>
      <point x="309" y="282"/>
      <point x="281" y="220"/>
    </contour>
  </outline>
</glyph>
<glyph name="H" format="1">
  <advance width="811"/>
  <unicode hex="0048"/>
  <outline>
    <contour>
      <point x="338" y="714" type="line"/>
      <point x="330" y="654" type="line"/>
      <point x="248" y="654" type="line"/>
      <point x="217" y="392" type="line"/>
      <point x="623" y="392" type="line"/>
      <point x="654" y="654" type="line"/>
      <point x="573" y="654" type="line"/>
      <point x="580" y="714" type="line"/>
      <point x="809" y="714" type="line"/>
      <point x="801" y="654" type="line"/>
      <point x="723" y="654" type="line"/>
      <point x="650" y="60" type="line"/>
      <point x="729" y="60" type="line"/>
      <point x="721" y="0" type="line"/>
      <point x="493" y="0" type="line"/>
      <point x="500" y="60" type="line"/>
      <point x="582" y="60" type="line"/>
      <point x="615" y="327" type="line"/>
      <point x="209" y="327" type="line"/>
      <point x="176" y="60" type="line"/>
      <point x="258" y="60" type="line"/>
      <point x="250" y="0" type="line"/>
      <point x="22" y="0" type="line"/>
      <point x="30" y="60" type="line"/>
      <point x="107" y="60" type="line"/>
      <point x="180" y="654" type="line"/>
      <point x="102" y="654" type="line"/>
      <point x="110" y="714" type="line"/>
    </contour>
  </outline>
</glyph>
<glyph name="L" format="1">
  <advance width="607"/>
  <unicode hex="004C"/>
  <outline>
    <contour>
      <point x="338" y="714" type="line"/>
      <point x="330" y="654" type="line"/>
      <point x="248" y="654" type="line"/>
      <point x="176" y="65" type="line"/>
      <point x="497" y="65" type="line"/>
      <point x="506" y="140" type="line"/>
      <point x="571" y="140" type="line"/>
      <point x="557" y="33" type="line"/>
      <point x="551" y="33" type="line"/>
      <point x="547" y="0" type="line"/>
      <point x="22" y="0" type="line"/>
      <point x="30" y="60" type="line"/>
      <point x="107" y="60" type="line"/>
      <point x="179" y="654" type="line"/>
      <point x="102" y="654" type="line"/>
      <point x="110" y="714" type="line"/>
    </contour>
  </outline>
</glyph>
<glyph name="N" format="1">
  <advance width="864"/>
  <unicode hex="004E"/>
  <outline>
    <contour>
      <point x="258" y="60" type="line"/>
      <point x="250" y="0" type="line"/>
      <point x="22" y="0" type="line"/>
      <point x="30" y="60" type="line"/>
      <point x="107" y="60" type="line"/>
      <point x="180" y="654" type="line"/>
      <point x="100" y="654" type="line"/>
      <point x="108" y="714" type="line"/>
      <point x="218" y="714" type="line"/>
      <point x="242" y="678"/>
      <point x="312" y="586"/>
      <point x="391" y="485"/>
      <point x="474" y="380"/>
      <point x="552" y="280"/>
      <point x="620" y="190"/>
      <point x="643" y="155" type="qcurve"/>
      <point x="659" y="128" type="line"/>
      <point x="659" y="136"/>
      <point x="660" y="153"/>
      <point x="660" y="161" type="qcurve"/>
      <point x="720" y="655" type="line"/>
      <point x="637" y="655" type="line"/>
      <point x="645" y="715" type="line"/>
      <point x="873" y="715" type="line"/>
      <point x="865" y="655" type="line"/>
      <point x="788" y="655" type="line"/>
      <point x="704" y="-33" type="line"/>
      <point x="680" y="2"/>
      <point x="606" y="99"/>
      <point x="521" y="209"/>
      <point x="430" y="324"/>
      <point x="346" y="434"/>
      <point x="276" y="529"/>
      <point x="254" y="564" type="qcurve"/>
      <point x="238" y="590" type="line"/>
      <point x="237" y="582"/>
      <point x="237" y="566"/>
      <point x="237" y="558" type="qcurve"/>
      <point x="176" y="60" type="line"/>
    </contour>
  </outline>
</glyph>
<glyph name="V" format="1">
  <advance width="735"/>
  <unicode hex="0056"/>
  <outline>
    <contour>
      <point x="783" y="714" type="line"/>
      <point x="775" y="654" type="line"/>
      <point x="698" y="654" type="line"/>
      <point x="330" y="-32" type="line"/>
      <point x="130" y="654" type="line"/>
      <point x="50" y="654" type="line"/>
      <point x="58" y="714" type="line"/>
      <point x="286" y="714" type="line"/>
      <point x="278" y="654" type="line"/>
      <point x="199" y="654" type="line"/>
      <point x="342" y="143" type="line"/>
      <point x="343" y="137"/>
      <point x="344" y="132" type="qcurve"/>
      <point x="345" y="127"/>
      <point x="347" y="116"/>
      <point x="348" y="112" type="qcurve"/>
      <point x="350" y="116"/>
      <point x="354" y="127"/>
      <point x="356" y="132" type="qcurve"/>
      <point x="359" y="137"/>
      <point x="361" y="143" type="qcurve"/>
      <point x="630" y="654" type="line"/>
      <point x="551" y="654" type="line"/>
      <point x="559" y="714" type="line"/>
    </contour>
  </outline>
</glyph>
<glyph name="W" format="1">
  <advance width="1018"/>
  <unicode hex="0057"/>
  <outline>
    <contour>
      <point x="285" y="714" type="line"/>
      <point x="277" y="654" type="line"/>
      <point x="203" y="654" type="line"/>
      <point x="216" y="606"/>
      <point x="244" y="502"/>
      <point x="270" y="399"/>
      <point x="294" y="304"/>
      <point x="313" y="226"/>
      <point x="326" y="169"/>
      <point x="328" y="156" type="qcurve"/>
      <point x="333" y="126" type="line"/>
      <point x="334" y="129"/>
      <point x="344" y="152"/>
      <point x="346" y="155" type="qcurve"/>
      <point x="347" y="158"/>
      <point x="362" y="188"/>
      <point x="384" y="233"/>
      <point x="412" y="289"/>
      <point x="426" y="318" type="qcurve"/>
      <point x="459" y="386"/>
      <point x="502" y="470" type="qcurve"/>
      <point x="486" y="532"/>
      <point x="475" y="583" type="qcurve"/>
      <point x="470" y="605"/>
      <point x="460" y="647"/>
      <point x="452" y="683"/>
      <point x="447" y="708"/>
      <point x="446" y="712" type="qcurve"/>
      <point x="512" y="712" type="line"/>
      <point x="544" y="591"/>
      <point x="571" y="483" type="qcurve"/>
      <point x="583" y="437"/>
      <point x="606" y="341"/>
      <point x="627" y="254"/>
      <point x="645" y="180"/>
      <point x="650" y="156" type="qcurve"/>
      <point x="652" y="148"/>
      <point x="654" y="134"/>
      <point x="655" y="126" type="qcurve"/>
      <point x="659" y="134"/>
      <point x="665" y="152"/>
      <point x="667" y="156" type="qcurve"/>
      <point x="672" y="171"/>
      <point x="704" y="238"/>
      <point x="749" y="330"/>
      <point x="805" y="440"/>
      <point x="864" y="554"/>
      <point x="922" y="666"/>
      <point x="947" y="714" type="qcurve"/>
      <point x="1063" y="714" type="line"/>
      <point x="1055" y="654" type="line"/>
      <point x="986" y="654" type="line"/>
      <point x="961" y="606"/>
      <point x="895" y="480"/>
      <point x="825" y="343"/>
      <point x="754" y="204"/>
      <point x="693" y="83"/>
      <point x="647" y="-10"/>
      <point x="636" y="-32" type="qcurve"/>
      <point x="530" y="371" type="line"/>
      <point x="528" y="375"/>
      <point x="525" y="387"/>
      <point x="524" y="392" type="qcurve"/>
      <point x="523" y="390"/>
      <point x="521" y="382"/>
      <point x="519" y="379" type="qcurve"/>
      <point x="517" y="375"/>
      <point x="516" y="371" type="qcurve"/>
      <point x="467" y="279"/>
      <point x="426" y="199" type="qcurve"/>
      <point x="408" y="165"/>
      <point x="372" y="95"/>
      <point x="341" y="33"/>
      <point x="316" y="-18"/>
      <point x="309" y="-33" type="qcurve"/>
      <point x="294" y="18"/>
      <point x="251" y="177"/>
      <point x="203" y="364"/>
      <point x="151" y="563"/>
      <point x="127" y="654" type="qcurve"/>
      <point x="49" y="654" type="line"/>
      <point x="57" y="714" type="line"/>
    </contour>
  </outline>
</glyph>
<glyph name="bracketleft" format="1">
  <advance width="306"/>
  <unicode hex="005B"/>
  <outline>
    <contour>
      <point x="41" y="-150" type="line"/>
      <point x="152" y="752" type="line"/>
      <point x="335" y="752" type="line"/>
      <point x="328" y="695" type="line"/>
      <point x="204" y="695" type="line"/>
      <point x="108" y="-93" type="line"/>
      <point x="232" y="-93" type="line"/>
      <point x="224" y="-150" type="line"/>
    </contour>
  </outline>
</glyph>
<glyph name="bracketright" format="1">
  <advance width="306"/>
  <unicode hex="005D"/>
  <outline>
    <contour>
      <point x="270" y="752" type="line"/>
      <point x="160" y="-150" type="line"/>
      <point x="-23" y="-150" type="line"/>
      <point x="-16" y="-93" type="line"/>
      <point x="108" y="-93" type="line"/>
      <point x="204" y="695" type="line"/>
      <point x="80" y="695" type="line"/>
      <point x="87" y="752" type="line"/>
    </contour>
  </outline>
</glyph>
<glyph name="w" format="1">
  <advance width="703"/>
  <unicode hex="0077"/>
  <outline>
    <contour>
      <point x="563" y="400" type="line"/>
      <point x="711" y="400" type="line"/>
      <point x="705" y="352" type="line"/>
      <point x="650" y="352" type="line"/>
      <point x="595" y="256"/>
      <point x="487" y="66"/>
      <point x="436" y="-24" type="qcurve"/>
      <point x="411" y="48"/>
      <point x="371" y="188"/>
      <point x="346" y="261" type="qcurve"/>
      <point x="306" y="188"/>
      <point x="231" y="48"/>
      <point x="191" y="-24" type="qcurve"/>
      <point x="162" y="71"/>
      <point x="102" y="257"/>
      <point x="73" y="352" type="qcurve"/>
      <point x="14" y="352" type="line"/>
      <point x="20" y="400" type="line"/>
      <point x="183" y="400" type="line"/>
      <point x="177" y="352" type="line"/>
      <point x="130" y="352" type="line"/>
      <point x="143" y="308"/>
      <point x="164" y="237"/>
      <point x="182" y="173"/>
      <point x="197" y="113"/>
      <point x="205" y="81" type="qcurve"/>
      <point x="215" y="102"/>
      <point x="238" y="146"/>
      <point x="266" y="201"/>
      <point x="303" y="270"/>
      <point x="328" y="315" type="qcurve"/>
      <point x="322" y="335"/>
      <point x="307" y="380"/>
      <point x="300" y="400" type="qcurve"/>
      <point x="349" y="400" type="line"/>
      <point x="367" y="346"/>
      <point x="402" y="233"/>
      <point x="416" y="186" type="qcurve"/>
      <point x="432" y="131"/>
      <point x="447" y="81" type="qcurve"/>
      <point x="470" y="124"/>
      <point x="496" y="170" type="qcurve"/>
      <point x="518" y="209"/>
      <point x="570" y="305"/>
      <point x="596" y="352" type="qcurve"/>
      <point x="557" y="352" type="line"/>
    </contour>
  </outline>
</glyph>
<glyph name="x" format="1">
  <advance width="455"/>
  <unicode hex="0078"/>
  <outline>
    <contour>
      <point x="45" y="400" type="line"/>
      <point x="212" y="400" type="line"/>
      <point x="206" y="352" type="line"/>
      <point x="161" y="352" type="line"/>
      <point x="222" y="248" type="line"/>
      <point x="233" y="261"/>
      <point x="267" y="301"/>
      <point x="303" y="344"/>
      <point x="338" y="384"/>
      <point x="349" y="398" type="qcurve"/>
      <point x="349" y="400" type="line"/>
      <point x="440" y="400" type="line"/>
      <point x="434" y="351" type="line"/>
      <point x="367" y="351" type="line"/>
      <point x="245" y="204" type="line"/>
      <point x="339" y="48" type="line"/>
      <point x="407" y="48" type="line"/>
      <point x="401" y="0" type="line"/>
      <point x="214" y="0" type="line"/>
      <point x="220" y="48" type="line"/>
      <point x="274" y="48" type="line"/>
      <point x="255" y="77"/>
      <point x="216" y="139"/>
      <point x="205" y="157" type="qcurve"/>
      <point x="194" y="144"/>
      <point x="159" y="101"/>
      <point x="121" y="56"/>
      <point x="85" y="13"/>
      <point x="74" y="0" type="qcurve"/>
      <point x="-12" y="0" type="line"/>
      <point x="-6" y="48" type="line"/>
      <point x="53" y="48" type="line"/>
      <point x="186" y="207" type="line"/>
      <point x="180" y="217"/>
      <point x="159" y="250"/>
      <point x="135" y="290"/>
      <point x="109" y="333"/>
      <point x="97" y="352" type="qcurve"/>
      <point x="39" y="352" type="line"/>
    </contour>
  </outline>
</glyph>
<glyph name="bar" format="1">
  <advance width="246"/>
  <unicode hex="007C"/>
  <outline>
    <contour>
      <point x="31" y="-234" type="line"/>
      <point x="146" y="706" type="line"/>
      <point x="205" y="706" type="line"/>
      <point x="90" y="-234" type="line"/>
    </contour>
  </outline>
</glyph>
<glyph name="braceright" format="1">
  <advance width="304"/>
  <unicode hex="007D"/>
  <outline>
    <contour>
      <point x="279" y="330" type="qcurve"/>
      <point x="271" y="269" type="line"/>
      <point x="244" y="268"/>
      <point x="208" y="236"/>
      <point x="186" y="190"/>
      <point x="175" y="139"/>
      <point x="173" y="120" type="qcurve"/>
      <point x="155" y="-31" type="line"/>
      <point x="149" y="-78"/>
      <point x="126" y="-126"/>
      <point x="94" y="-148"/>
      <point x="54" y="-150"/>
      <point x="33" y="-150" type="qcurve"/>
      <point x="-21" y="-150" type="line"/>
      <point x="-14" y="-93" type="line"/>
      <point x="35" y="-93" type="line"/>
      <point x="51" y="-93"/>
      <point x="72" y="-83"/>
      <point x="87" y="-59"/>
      <point x="96" y="-18"/>
      <point x="100" y="14" type="qcurve"/>
      <point x="119" y="166" type="line"/>
      <point x="123" y="198"/>
      <point x="142" y="244"/>
      <point x="166" y="275"/>
      <point x="192" y="295"/>
      <point x="202" y="301" type="qcurve"/>
      <point x="192" y="308"/>
      <point x="171" y="328"/>
      <point x="156" y="363"/>
      <point x="149" y="413"/>
      <point x="154" y="450" type="qcurve"/>
      <point x="171" y="588" type="line"/>
      <point x="175" y="619"/>
      <point x="175" y="661"/>
      <point x="166" y="685"/>
      <point x="147" y="695"/>
      <point x="132" y="695" type="qcurve"/>
      <point x="83" y="695" type="line"/>
      <point x="90" y="752" type="line"/>
      <point x="144" y="752" type="line"/>
      <point x="165" y="752"/>
      <point x="203" y="750"/>
      <point x="230" y="729"/>
      <point x="242" y="680"/>
      <point x="236" y="633" type="qcurve"/>
      <point x="217" y="480" type="line"/>
      <point x="215" y="460"/>
      <point x="213" y="410"/>
      <point x="224" y="364"/>
      <point x="252" y="331"/>
    </contour>
  </outline>
</glyph>
<glyph name="cent" format="1">
  <advance width="435"/>
  <unicode hex="00A2"/>
  <outline>
    <contour>
      <point x="394" y="364" type="qcurve"/>
      <point x="386" y="292" type="line"/>
      <point x="338" y="292" type="line"/>
      <point x="343" y="331" type="line"/>
      <point x="310" y="353"/>
      <point x="264" y="355" type="qcurve"/>
      <point x="227" y="46" type="line"/>
      <point x="284" y="48"/>
      <point x="328" y="79" type="qcurve"/>
      <point x="357" y="38" type="line"/>
      <point x="297" y="-5"/>
      <point x="220" y="-8" type="qcurve"/>
      <point x="213" y="-68" type="line"/>
      <point x="171" y="-68" type="line"/>
      <point x="178" y="-5" type="line"/>
      <point x="143" y="1"/>
      <point x="88" y="33"/>
      <point x="49" y="82"/>
      <point x="28" y="143"/>
      <point x="28" y="177" type="qcurve"/>
      <point x="28" y="220"/>
      <point x="60" y="297"/>
      <point x="115" y="358"/>
      <point x="188" y="399"/>
      <point x="229" y="406" type="qcurve"/>
      <point x="236" y="465" type="line"/>
      <point x="278" y="465" type="line"/>
      <point x="271" y="409" type="line"/>
      <point x="308" y="408"/>
      <point x="370" y="385"/>
    </contour>
    <contour>
      <point x="84" y="184" type="qcurve"/>
      <point x="84" y="134"/>
      <point x="139" y="61"/>
      <point x="185" y="50" type="qcurve"/>
      <point x="222" y="351" type="line"/>
      <point x="192" y="345"/>
      <point x="142" y="314"/>
      <point x="105" y="270"/>
      <point x="84" y="215"/>
    </contour>
  </outline>
</glyph>
<glyph name="dieresis" format="1">
  <advance width="373"/>
  <unicode hex="00A8"/>
  <outline>
    <contour>
      <point x="304" y="513" type="qcurve"/>
      <point x="304" y="532"/>
      <point x="333" y="558"/>
      <point x="350" y="558" type="qcurve"/>
      <point x="364" y="558"/>
      <point x="385" y="537"/>
      <point x="385" y="521" type="qcurve"/>
      <point x="385" y="501"/>
      <point x="356" y="476"/>
      <point x="340" y="476" type="qcurve"/>
      <point x="326" y="476"/>
      <point x="304" y="496"/>
    </contour>
    <contour>
      <point x="125" y="513" type="qcurve"/>
      <point x="125" y="532"/>
      <point x="154" y="558"/>
      <point x="171" y="558" type="qcurve"/>
      <point x="185" y="558"/>
      <point x="206" y="537"/>
      <point x="206" y="521" type="qcurve"/>
      <point x="206" y="501"/>
      <point x="177" y="476"/>
      <point x="161" y="476" type="qcurve"/>
      <point x="146" y="476"/>
      <point x="125" y="496"/>
    </contour>
  </outline>
</glyph>
<glyph name="logicalnot" format="1">
  <advance width="511"/>
  <unicode hex="00AC"/>
  <outline>
    <contour>
      <point x="367" y="149" type="line"/>
      <point x="374" y="204" type="line"/>
      <point x="70" y="204" type="line"/>
      <point x="76" y="247" type="line"/>
      <point x="438" y="247" type="line"/>
      <point x="426" y="149" type="line"/>
    </contour>
  </outline>
</glyph>
<glyph name="degree" format="1">
  <advance width="293"/>
  <unicode hex="00B0"/>
  <outline>
    <contour>
      <point x="175" y="510" type="qcurve"/>
      <point x="199" y="510"/>
      <point x="236" y="544"/>
      <point x="236" y="569" type="qcurve"/>
      <point x="236" y="590"/>
      <point x="208" y="618"/>
      <point x="188" y="618" type="qcurve"/>
      <point x="163" y="618"/>
      <point x="127" y="584"/>
      <point x="127" y="559" type="qcurve"/>
      <point x="127" y="538"/>
      <point x="154" y="510"/>
    </contour>
    <contour>
      <point x="87" y="555" type="qcurve"/>
      <point x="87" y="576"/>
      <point x="104" y="613"/>
      <point x="133" y="640"/>
      <point x="171" y="656"/>
      <point x="193" y="656" type="qcurve"/>
      <point x="228" y="656"/>
      <point x="274" y="609"/>
      <point x="274" y="574" type="qcurve"/>
      <point x="274" y="553"/>
      <point x="257" y="515"/>
      <point x="228" y="488"/>
      <point x="191" y="472"/>
      <point x="170" y="472" type="qcurve"/>
      <point x="133" y="472"/>
      <point x="87" y="520"/>
    </contour>
  </outline>
</glyph>
<glyph name="twosuperior" format="1">
  <advance width="344"/>
  <unicode hex="00B2"/>
  <outline>
    <contour>
      <point x="153" y="403" type="qcurve"/>
      <point x="270" y="403" type="line"/>
      <point x="276" y="449" type="line"/>
      <point x="306" y="449" type="line"/>
      <point x="297" y="375" type="line"/>
      <point x="79" y="375" type="line"/>
      <point x="116" y="407"/>
      <point x="185" y="468"/>
      <point x="239" y="526"/>
      <point x="271" y="581"/>
      <point x="271" y="607" type="qcurve"/>
      <point x="271" y="625"/>
      <point x="260" y="651"/>
      <point x="242" y="667"/>
      <point x="221" y="674"/>
      <point x="211" y="674" type="qcurve"/>
      <point x="188" y="674"/>
      <point x="158" y="657"/>
      <point x="140" y="632"/>
      <point x="133" y="604"/>
      <point x="133" y="594" type="qcurve"/>
      <point x="133" y="567"/>
      <point x="146" y="550" type="qcurve"/>
      <point x="127" y="533" type="line"/>
      <point x="115" y="542"/>
      <point x="103" y="578"/>
      <point x="103" y="595" type="qcurve"/>
      <point x="103" y="616"/>
      <point x="118" y="655"/>
      <point x="147" y="684"/>
      <point x="189" y="702"/>
      <point x="215" y="702" type="qcurve"/>
      <point x="255" y="702"/>
      <point x="300" y="651"/>
      <point x="300" y="613" type="qcurve"/>
      <point x="300" y="585"/>
      <point x="274" y="532"/>
      <point x="233" y="480"/>
      <point x="180" y="429"/>
    </contour>
  </outline>
</glyph>
<glyph name="onehalf" format="1">
  <advance width="839"/>
  <unicode hex="00BD"/>
  <outline>
    <contour>
      <point x="561" y="40" type="qcurve"/>
      <point x="729" y="40" type="line"/>
      <point x="737" y="106" type="line"/>
      <point x="779" y="106" type="line"/>
      <point x="767" y="0" type="line"/>
      <point x="455" y="0" type="line"/>
      <point x="508" y="46"/>
      <point x="607" y="134"/>
      <point x="683" y="217"/>
      <point x="729" y="296"/>
      <point x="729" y="333" type="qcurve"/>
      <point x="729" y="359"/>
      <point x="713" y="396"/>
      <point x="687" y="419"/>
      <point x="657" y="429"/>
      <point x="644" y="429" type="qcurve"/>
      <point x="611" y="429"/>
      <point x="568" y="404"/>
      <point x="542" y="369"/>
      <point x="532" y="329"/>
      <point x="532" y="314" type="qcurve"/>
      <point x="532" y="275"/>
      <point x="552" y="251" type="qcurve"/>
      <point x="523" y="227" type="line"/>
      <point x="506" y="240"/>
      <point x="490" y="290"/>
      <point x="490" y="315" type="qcurve"/>
      <point x="490" y="345"/>
      <point x="512" y="401"/>
      <point x="553" y="443"/>
      <point x="612" y="469"/>
      <point x="649" y="469" type="qcurve"/>
      <point x="706" y="469"/>
      <point x="772" y="395"/>
      <point x="772" y="341" type="qcurve"/>
      <point x="772" y="302"/>
      <point x="735" y="226"/>
      <point x="675" y="151"/>
      <point x="599" y="77"/>
    </contour>
    <contour>
      <point x="159" y="-19" type="line"/>
      <point x="533" y="741" type="line"/>
      <point x="592" y="741" type="line"/>
      <point x="218" y="-19" type="line"/>
    </contour>
    <contour>
      <point x="85" y="658" type="line"/>
      <point x="90" y="699" type="line"/>
      <point x="192" y="699" type="line"/>
      <point x="135" y="234" type="line"/>
      <point x="92" y="234" type="line"/>
      <point x="145" y="658" type="line"/>
    </contour>
  </outline>
</glyph>
<glyph name="Atilde" format="1">
  <advance width="735"/>
  <unicode hex="00C3"/>
  <outline>
    <contour>
      <point x="-23" y="60" type="line"/>
      <point x="-31" y="0" type="line"/>
      <point x="197" y="0" type="line"/>
      <point x="205" y="60" type="line"/>
      <point x="124" y="60" type="line"/>
      <point x="227" y="255" type="line"/>
      <point x="501" y="255" type="line"/>
      <point x="556" y="60" type="line"/>
      <point x="478" y="60" type="line"/>
      <point x="471" y="0" type="line"/>
      <point x="699" y="0" type="line"/>
      <point x="707" y="60" type="line"/>
      <point x="624" y="60" type="line"/>
      <point x="425" y="747" type="line"/>
      <point x="57" y="60" type="line"/>
    </contour>
    <contour>
      <point x="394" y="572" type="line"/>
      <point x="396" y="578"/>
      <point x="399" y="583" type="qcurve"/>
      <point x="401" y="588"/>
      <point x="405" y="598"/>
      <point x="407" y="603" type="qcurve"/>
      <point x="408" y="598"/>
      <point x="410" y="588"/>
      <point x="411" y="583" type="qcurve"/>
      <point x="412" y="578"/>
      <point x="413" y="572" type="qcurve"/>
      <point x="485" y="314" type="line"/>
      <point x="258" y="314" type="line"/>
    </contour>
    <contour>
      <point x="423" y="794" type="qcurve"/>
      <point x="409" y="811"/>
      <point x="388" y="822"/>
      <point x="374" y="822" type="qcurve"/>
      <point x="366" y="822"/>
      <point x="347" y="818"/>
      <point x="328" y="807"/>
      <point x="312" y="787"/>
      <point x="309" y="772" type="qcurve"/>
      <point x="276" y="774" type="line"/>
      <point x="279" y="794"/>
      <point x="300" y="824"/>
      <point x="328" y="845"/>
      <point x="359" y="855"/>
      <point x="374" y="855" type="qcurve"/>
      <point x="397" y="855"/>
      <point x="430" y="837"/>
      <point x="444" y="820" type="qcurve"/>
      <point x="458" y="803"/>
      <point x="480" y="792"/>
      <point x="494" y="792" type="qcurve"/>
      <point x="501" y="792"/>
      <point x="521" y="796"/>
      <point x="540" y="807"/>
      <point x="555" y="827"/>
      <point x="559" y="842" type="qcurve"/>
      <point x="592" y="840" type="line"/>
      <point x="588" y="820"/>
      <point x="568" y="790"/>
      <point x="540" y="769"/>
      <point x="508" y="759"/>
      <point x="493" y="759" type="qcurve"/>
      <point x="471" y="759"/>
      <point x="437" y="778"/>
    </contour>
  </outline>
</glyph>
<glyph name="Egrave" format="1">
  <advance width="647"/>
  <unicode hex="00C8"/>
  <outline>
    <contour>
      <point x="556" y="580" type="line"/>
      <point x="564" y="652" type="line"/>
      <point x="248" y="652" type="line"/>
      <point x="216" y="391" type="line"/>
      <point x="558" y="391" type="line"/>
      <point x="550" y="327" type="line"/>
      <point x="208" y="327" type="line"/>
      <point x="176" y="64" type="line"/>
      <point x="507" y="64" type="line"/>
      <point x="516" y="140" type="line"/>
      <point x="581" y="140" type="line"/>
      <point x="567" y="33" type="line"/>
      <point x="563" y="0" type="line"/>
      <point x="22" y="0" type="line"/>
      <point x="30" y="60" type="line"/>
      <point x="107" y="60" type="line"/>
      <point x="179" y="654" type="line"/>
      <point x="102" y="654" type="line"/>
      <point x="110" y="714" type="line"/>
      <point x="637" y="714" type="line"/>
      <point x="632" y="679" type="line"/>
      <point x="633" y="679" type="line"/>
      <point x="620" y="580" type="line"/>
    </contour>
    <contour>
      <point x="377" y="891" type="line"/>
      <point x="396" y="857"/>
      <point x="432" y="790"/>
      <point x="451" y="757" type="qcurve"/>
      <point x="408" y="757" type="line"/>
      <point x="385" y="790"/>
      <point x="340" y="857"/>
      <point x="317" y="891" type="qcurve"/>
    </contour>
  </outline>
</glyph>
<glyph name="Edieresis" format="1">
  <advance width="647"/>
  <unicode hex="00CB"/>
  <outline>
    <contour>
      <point x="556" y="580" type="line"/>
      <point x="564" y="652" type="line"/>
      <point x="248" y="652" type="line"/>
      <point x="216" y="391" type="line"/>
      <point x="558" y="391" type="line"/>
      <point x="550" y="327" type="line"/>
      <point x="208" y="327" type="line"/>
      <point x="176" y="64" type="line"/>
      <point x="507" y="64" type="line"/>
      <point x="516" y="140" type="line"/>
      <point x="581" y="140" type="line"/>
      <point x="567" y="33" type="line"/>
      <point x="563" y="0" type="line"/>
      <point x="22" y="0" type="line"/>
      <point x="30" y="60" type="line"/>
      <point x="107" y="60" type="line"/>
      <point x="179" y="654" type="line"/>
      <point x="102" y="654" type="line"/>
      <point x="110" y="714" type="line"/>
      <point x="637" y="714" type="line"/>
      <point x="632" y="679" type="line"/>
      <point x="633" y="679" type="line"/>
      <point x="620" y="580" type="line"/>
    </contour>
    <contour>
      <point x="279" y="794" type="qcurve"/>
      <point x="279" y="813"/>
      <point x="308" y="839"/>
      <point x="325" y="839" type="qcurve"/>
      <point x="339" y="839"/>
      <point x="360" y="818"/>
      <point x="360" y="802" type="qcurve"/>
      <point x="360" y="782"/>
      <point x="331" y="757"/>
      <point x="315" y="757" type="qcurve"/>
      <point x="300" y="757"/>
      <point x="279" y="777"/>
    </contour>
    <contour>
      <point x="458" y="794" type="qcurve"/>
      <point x="458" y="813"/>
      <point x="487" y="839"/>
      <point x="504" y="839" type="qcurve"/>
      <point x="518" y="839"/>
      <point x="539" y="818"/>
      <point x="539" y="802" type="qcurve"/>
      <point x="539" y="782"/>
      <point x="510" y="757"/>
      <point x="494" y="757" type="qcurve"/>
      <point x="480" y="757"/>
      <point x="458" y="777"/>
    </contour>
  </outline>
</glyph>
<glyph name="Eth" format="1">
  <advance width="747"/>
  <unicode hex="00D0"/>
  <outline>
    <contour>
      <point x="80" y="378" type="line"/>
      <point x="148" y="378" type="line"/>
      <point x="182" y="654" type="line"/>
      <point x="104" y="654" type="line"/>
      <point x="112" y="714" type="line"/>
      <point x="355" y="714" type="line"/>
      <point x="452" y="714"/>
      <point x="587" y="657"/>
      <point x="671" y="566"/>
      <point x="708" y="451"/>
      <point x="708" y="393" type="qcurve"/>
      <point x="708" y="303"/>
      <point x="640" y="158"/>
      <point x="528" y="56"/>
      <point x="381" y="0"/>
      <point x="302" y="0" type="qcurve"/>
      <point x="24" y="0" type="line"/>
      <point x="32" y="60" type="line"/>
      <point x="109" y="60" type="line"/>
      <point x="142" y="330" type="line"/>
      <point x="74" y="330" type="line"/>
    </contour>
    <contour>
      <point x="304" y="65" type="line"/>
      <point x="371" y="65"/>
      <point x="493" y="110"/>
      <point x="586" y="194"/>
      <point x="640" y="315"/>
      <point x="640" y="390" type="qcurve"/>
      <point x="640" y="445"/>
      <point x="603" y="540"/>
      <point x="532" y="609"/>
      <point x="431" y="648"/>
      <point x="368" y="648" type="qcurve"/>
      <point x="250" y="648" type="line"/>
      <point x="216" y="378" type="line"/>
      <point x="396" y="378" type="line"/>
      <point x="390" y="330" type="line"/>
      <point x="211" y="330" type="line"/>
      <point x="178" y="65" type="line"/>
    </contour>
  </outline>
</glyph>
<glyph name="multiply" format="1">
  <advance width="434"/>
  <unicode hex="00D7"/>
  <outline>
    <contour>
      <point x="289" y="0" type="line"/>
      <point x="196" y="105" type="line"/>
      <point x="79" y="1" type="line"/>
      <point x="36" y="49" type="line"/>
      <point x="65" y="76"/>
      <point x="124" y="128"/>
      <point x="154" y="155" type="qcurve"/>
      <point x="61" y="260" type="line"/>
      <point x="116" y="310" type="line"/>
      <point x="210" y="204" type="line"/>
      <point x="328" y="309" type="line"/>
      <point x="339" y="298"/>
      <point x="359" y="272"/>
      <point x="370" y="260" type="qcurve"/>
      <point x="341" y="234"/>
      <point x="282" y="182"/>
      <point x="253" y="156" type="qcurve"/>
      <point x="345" y="50" type="line"/>
    </contour>
  </outline>
</glyph>
<glyph name="Ucircumflex" format="1">
  <advance width="747"/>
  <unicode hex="00DB"/>
  <outline>
    <contour>
      <point x="322" y="714" type="line"/>
      <point x="314" y="654" type="line"/>
      <point x="234" y="654" type="line"/>
      <point x="185" y="246" type="line"/>
      <point x="179" y="203"/>
      <point x="198" y="133"/>
      <point x="242" y="84"/>
      <point x="307" y="57"/>
      <point x="347" y="57" type="qcurve"/>
      <point x="386" y="57"/>
      <point x="458" y="84"/>
      <point x="514" y="133"/>
      <point x="551" y="203"/>
      <point x="556" y="246" type="qcurve"/>
      <point x="606" y="654" type="line"/>
      <point x="614" y="714" type="line"/>
      <point x="761" y="714" type="line"/>
      <point x="753" y="654" type="line"/>
      <point x="674" y="654" type="line"/>
      <point x="625" y="243" type="line"/>
      <point x="617" y="184"/>
      <point x="566" y="91"/>
      <point x="490" y="27"/>
      <point x="393" y="-8"/>
      <point x="339" y="-8" type="qcurve"/>
      <point x="285" y="-8"/>
      <point x="197" y="27"/>
      <point x="137" y="91"/>
      <point x="109" y="184"/>
      <point x="116" y="243" type="qcurve"/>
      <point x="166" y="654" type="line"/>
      <point x="86" y="654" type="line"/>
      <point x="94" y="714" type="line"/>
    </contour>
    <contour>
      <point x="457" y="939" type="qcurve"/>
      <point x="556" y="757" type="line"/>
      <point x="513" y="757" type="line"/>
      <point x="449" y="867" type="line"/>
      <point x="440" y="856"/>
      <point x="416" y="827"/>
      <point x="391" y="797"/>
      <point x="367" y="769"/>
      <point x="358" y="757" type="qcurve"/>
      <point x="314" y="757" type="line"/>
      <point x="350" y="802"/>
      <point x="422" y="894"/>
    </contour>
  </outline>
</glyph>
<glyph name="ccedilla" format="1">
  <advance width="405"/>
  <unicode hex="00E7"/>
  <outline>
    <contour>
      <point x="322" y="79" type="qcurve"/>
      <point x="330" y="68"/>
      <point x="344" y="49"/>
      <point x="352" y="38" type="qcurve"/>
      <point x="322" y="16"/>
      <point x="252" y="-8"/>
      <point x="215" y="-8" type="qcurve"/>
      <point x="213" y="-22"/>
      <point x="219" y="-38"/>
      <point x="230" y="-49"/>
      <point x="244" y="-57"/>
      <point x="250" y="-61" type="qcurve"/>
      <point x="267" y="-75"/>
      <point x="282" y="-109"/>
      <point x="282" y="-126" type="qcurve"/>
      <point x="282" y="-176"/>
      <point x="220" y="-242"/>
      <point x="170" y="-242" type="qcurve"/>
      <point x="138" y="-242"/>
      <point x="90" y="-208"/>
      <point x="82" y="-173" type="qcurve"/>
      <point x="119" y="-156" type="line"/>
      <point x="122" y="-174"/>
      <point x="149" y="-197"/>
      <point x="171" y="-197" type="qcurve"/>
      <point x="200" y="-197"/>
      <point x="237" y="-157"/>
      <point x="237" y="-128" type="qcurve"/>
      <point x="237" y="-107"/>
      <point x="216" y="-85"/>
      <point x="191" y="-65"/>
      <point x="172" y="-42"/>
      <point x="175" y="-20" type="qcurve"/>
      <point x="177" y="-4" type="line"/>
      <point x="144" y="2"/>
      <point x="88" y="35"/>
      <point x="49" y="83"/>
      <point x="27" y="144"/>
      <point x="27" y="179" type="qcurve"/>
      <point x="27" y="226"/>
      <point x="66" y="309"/>
      <point x="132" y="372"/>
      <point x="218" y="409"/>
      <point x="265" y="409" type="qcurve"/>
      <point x="303" y="409"/>
      <point x="368" y="385"/>
      <point x="393" y="363" type="qcurve"/>
      <point x="353" y="322" type="line"/>
      <point x="315" y="355"/>
      <point x="259" y="355" type="qcurve"/>
      <point x="223" y="355"/>
      <point x="159" y="328"/>
      <point x="111" y="282"/>
      <point x="83" y="220"/>
      <point x="83" y="184" type="qcurve"/>
      <point x="83" y="155"/>
      <point x="103" y="105"/>
      <point x="139" y="67"/>
      <point x="189" y="46"/>
      <point x="220" y="46" type="qcurve"/>
      <point x="278" y="46"/>
    </contour>
  </outline>
</glyph>
<glyph name="eacute" format="1">
  <advance width="453"/>
  <unicode hex="00E9"/>
  <outline>
    <contour>
      <point x="370" y="48" type="line"/>
      <point x="338" y="22"/>
      <point x="257" y="-8"/>
      <point x="214" y="-8" type="qcurve"/>
      <point x="172" y="-8"/>
      <point x="104" y="21"/>
      <point x="54" y="71"/>
      <point x="27" y="139"/>
      <point x="27" y="178" type="qcurve"/>
      <point x="27" y="225"/>
      <point x="66" y="310"/>
      <point x="132" y="373"/>
      <point x="217" y="410"/>
      <point x="263" y="410" type="qcurve"/>
      <point x="330" y="410"/>
      <point x="418" y="331"/>
      <point x="432" y="268" type="qcurve"/>
      <point x="396" y="255"/>
      <point x="310" y="222"/>
      <point x="218" y="187"/>
      <point x="128" y="152"/>
      <point x="89" y="137" type="qcurve"/>
      <point x="102" y="96"/>
      <point x="171" y="46"/>
      <point x="219" y="46" type="qcurve"/>
      <point x="250" y="46"/>
      <point x="311" y="68"/>
      <point x="334" y="87" type="qcurve"/>
    </contour>
    <contour>
      <point x="365" y="282" type="qcurve"/>
      <point x="352" y="316"/>
      <point x="295" y="355"/>
      <point x="257" y="355" type="qcurve"/>
      <point x="223" y="355"/>
      <point x="161" y="328"/>
      <point x="113" y="283"/>
      <point x="84" y="222"/>
      <point x="83" y="189" type="qcurve"/>
      <point x="83" y="184"/>
      <point x="83" y="176"/>
      <point x="84" y="174" type="qcurve"/>
      <point x="116" y="187"/>
      <point x="189" y="215"/>
      <point x="263" y="244"/>
      <point x="335" y="271"/>
    </contour>
    <contour>
      <point x="231" y="483" type="line"/>
      <point x="258" y="516"/>
      <point x="312" y="583"/>
      <point x="338" y="617" type="qcurve"/>
      <point x="398" y="617" type="line"/>
      <point x="275" y="483" type="line"/>
    </contour>
  </outline>
</glyph>
<glyph name="divide" format="1">
  <advance width="502"/>
  <unicode hex="00F7"/>
  <outline>
    <contour>
      <point x="424" y="209" type="line"/>
      <point x="61" y="209" type="line"/>
      <point x="69" y="266" type="line"/>
      <point x="431" y="266" type="line"/>
    </contour>
    <contour>
      <point x="226" y="372" type="qcurve"/>
      <point x="226" y="391"/>
      <point x="255" y="417"/>
      <point x="272" y="417" type="qcurve"/>
      <point x="286" y="417"/>
      <point x="307" y="396"/>
      <point x="307" y="380" type="qcurve"/>
      <point x="307" y="360"/>
      <point x="278" y="335"/>
      <point x="262" y="335" type="qcurve"/>
      <point x="247" y="335"/>
      <point x="226" y="355"/>
    </contour>
    <contour>
      <point x="191" y="96" type="qcurve"/>
      <point x="191" y="115"/>
      <point x="221" y="141"/>
      <point x="238" y="141" type="qcurve"/>
      <point x="252" y="141"/>
      <point x="273" y="120"/>
      <point x="273" y="104" type="qcurve"/>
      <point x="273" y="84"/>
      <point x="244" y="59"/>
      <point x="228" y="59" type="qcurve"/>
      <point x="214" y="59"/>
      <point x="191" y="79"/>
    </contour>
  </outline>
</glyph>
<glyph name="ucircumflex" format="1">
  <advance width="529"/>
  <unicode hex="00FB"/>
  <outline>
    <contour>
      <point x="472" y="0" type="line"/>
      <point x="359" y="0" type="line"/>
      <point x="365" y="103" type="line"/>
      <point x="337" y="53"/>
      <point x="244" y="-9"/>
      <point x="183" y="-9" type="qcurve"/>
      <point x="124" y="-9"/>
      <point x="63" y="57"/>
      <point x="68" y="111" type="qcurve"/>
      <point x="97" y="351" type="line"/>
      <point x="29" y="351" type="line"/>
      <point x="35" y="400" type="line"/>
      <point x="158" y="400" type="line"/>
      <point x="149" y="328" type="line"/>
      <point x="125" y="130" type="line"/>
      <point x="123" y="96"/>
      <point x="161" y="48"/>
      <point x="204" y="46" type="qcurve"/>
      <point x="235" y="46"/>
      <point x="293" y="67"/>
      <point x="338" y="104"/>
      <point x="368" y="156"/>
      <point x="372" y="187" type="qcurve"/>
      <point x="390" y="333" type="line"/>
      <point x="392" y="351" type="line"/>
      <point x="319" y="351" type="line"/>
      <point x="325" y="400" type="line"/>
      <point x="453" y="400" type="line"/>
      <point x="410" y="48" type="line"/>
      <point x="477" y="48" type="line"/>
    </contour>
    <contour>
      <point x="304" y="617" type="qcurve"/>
      <point x="329" y="586"/>
      <point x="350" y="559" type="qcurve"/>
      <point x="368" y="536"/>
      <point x="402" y="491"/>
      <point x="408" y="483" type="qcurve"/>
      <point x="365" y="483" type="line"/>
      <point x="296" y="553" type="line"/>
      <point x="210" y="483" type="line"/>
      <point x="166" y="483" type="line"/>
      <point x="174" y="491"/>
      <point x="219" y="535"/>
      <point x="243" y="558" type="qcurve"/>
      <point x="271" y="585"/>
    </contour>
  </outline>
</glyph>
<glyph name="udieresis" format="1">
  <advance width="529"/>
  <unicode hex="00FC"/>
  <outline>
    <contour>
      <point x="365" y="103" type="line"/>
      <point x="337" y="53"/>
      <point x="244" y="-9"/>
      <point x="183" y="-9" type="qcurve"/>
      <point x="124" y="-9"/>
      <point x="63" y="57"/>
      <point x="68" y="111" type="qcurve"/>
      <point x="97" y="351" type="line"/>
      <point x="29" y="351" type="line"/>
      <point x="35" y="400" type="line"/>
      <point x="158" y="400" type="line"/>
      <point x="149" y="328" type="line"/>
      <point x="125" y="130" type="line"/>
      <point x="123" y="96"/>
      <point x="161" y="48"/>
      <point x="204" y="46" type="qcurve"/>
      <point x="235" y="46"/>
      <point x="293" y="67"/>
      <point x="338" y="104"/>
      <point x="368" y="156"/>
      <point x="372" y="187" type="qcurve"/>
      <point x="392" y="351" type="line"/>
      <point x="319" y="351" type="line"/>
      <point x="325" y="400" type="line"/>
      <point x="453" y="400" type="line"/>
      <point x="410" y="48" type="line"/>
      <point x="477" y="48" type="line"/>
      <point x="472" y="0" type="line"/>
      <point x="359" y="0" type="line"/>
    </contour>
    <contour>
      <point x="158" y="513" type="qcurve"/>
      <point x="158" y="532"/>
      <point x="187" y="558"/>
      <point x="204" y="558" type="qcurve"/>
      <point x="218" y="558"/>
      <point x="239" y="537"/>
      <point x="239" y="521" type="qcurve"/>
      <point x="239" y="501"/>
      <point x="210" y="476"/>
      <point x="194" y="476" type="qcurve"/>
      <point x="179" y="476"/>
      <point x="158" y="496"/>
    </contour>
    <contour>
      <point x="337" y="513" type="qcurve"/>
      <point x="337" y="532"/>
      <point x="366" y="558"/>
      <point x="383" y="558" type="qcurve"/>
      <point x="397" y="558"/>
      <point x="418" y="537"/>
      <point x="418" y="521" type="qcurve"/>
      <point x="418" y="501"/>
      <point x="389" y="476"/>
      <point x="373" y="476" type="qcurve"/>
      <point x="359" y="476"/>
      <point x="337" y="496"/>
    </contour>
  </outline>
</glyph>
<glyph name="ccircumflex" format="1">
  <advance width="415"/>
  <unicode hex="0109"/>
  <outline>
    <contour>
      <point x="393" y="364" type="qcurve"/>
      <point x="385" y="292" type="line"/>
      <point x="337" y="292" type="line"/>
      <point x="342" y="331" type="line"/>
      <point x="307" y="355"/>
      <point x="259" y="355" type="qcurve"/>
      <point x="223" y="355"/>
      <point x="159" y="328"/>
      <point x="111" y="282"/>
      <point x="83" y="220"/>
      <point x="83" y="184" type="qcurve"/>
      <point x="83" y="155"/>
      <point x="103" y="104"/>
      <point x="139" y="67"/>
      <point x="190" y="46"/>
      <point x="220" y="46" type="qcurve"/>
      <point x="249" y="46"/>
      <point x="305" y="63"/>
      <point x="327" y="79" type="qcurve"/>
      <point x="356" y="38" type="line"/>
      <point x="326" y="16"/>
      <point x="252" y="-8"/>
      <point x="213" y="-8" type="qcurve"/>
      <point x="171" y="-8"/>
      <point x="102" y="21"/>
      <point x="53" y="71"/>
      <point x="27" y="139"/>
      <point x="27" y="177" type="qcurve"/>
      <point x="27" y="225"/>
      <point x="66" y="309"/>
      <point x="132" y="372"/>
      <point x="218" y="409"/>
      <point x="265" y="409" type="qcurve"/>
      <point x="342" y="409"/>
    </contour>
    <contour>
      <point x="289" y="665" type="qcurve"/>
      <point x="388" y="483" type="line"/>
      <point x="345" y="483" type="line"/>
      <point x="281" y="593" type="line"/>
      <point x="272" y="582"/>
      <point x="248" y="553"/>
      <point x="223" y="523"/>
      <point x="199" y="495"/>
      <point x="190" y="483" type="qcurve"/>
      <point x="146" y="483" type="line"/>
      <point x="182" y="528"/>
      <point x="254" y="620"/>
    </contour>
  </outline>
</glyph>
<glyph name="Cdotaccent" format="1">
  <advance width="653"/>
  <unicode hex="010A"/>
  <outline>
    <contour>
      <point x="577" y="562" type="line"/>
      <point x="585" y="635" type="line"/>
      <point x="558" y="646"/>
      <point x="495" y="658"/>
      <point x="466" y="658" type="qcurve"/>
      <point x="398" y="658"/>
      <point x="274" y="604"/>
      <point x="180" y="513"/>
      <point x="125" y="393"/>
      <point x="125" y="326" type="qcurve"/>
      <point x="125" y="273"/>
      <point x="161" y="177"/>
      <point x="229" y="105"/>
      <point x="326" y="62"/>
      <point x="387" y="62" type="qcurve"/>
      <point x="415" y="62"/>
      <point x="470" y="72"/>
      <point x="517" y="86"/>
      <point x="555" y="103"/>
      <point x="566" y="110" type="qcurve"/>
      <point x="589" y="48" type="line"/>
      <point x="555" y="28"/>
      <point x="444" y="-8"/>
      <point x="375" y="-8" type="qcurve"/>
      <point x="299" y="-8"/>
      <point x="181" y="43"/>
      <point x="99" y="130"/>
      <point x="56" y="246"/>
      <point x="56" y="312" type="qcurve"/>
      <point x="56" y="399"/>
      <point x="125" y="549"/>
      <point x="240" y="659"/>
      <point x="389" y="722"/>
      <point x="469" y="722" type="qcurve"/>
      <point x="528" y="722"/>
      <point x="627" y="692"/>
      <point x="655" y="672" type="qcurve"/>
      <point x="641" y="562" type="line"/>
    </contour>
    <contour>
      <point x="433" y="794" type="qcurve"/>
      <point x="433" y="813"/>
      <point x="461" y="838"/>
      <point x="478" y="838" type="qcurve"/>
      <point x="492" y="838"/>
      <point x="513" y="818"/>
      <point x="513" y="802" type="qcurve"/>
      <point x="513" y="782"/>
      <point x="485" y="758"/>
      <point x="468" y="758" type="qcurve"/>
      <point x="454" y="758"/>
      <point x="433" y="778"/>
    </contour>
  </outline>
</glyph>
<glyph name="Dcroat" format="1">
  <advance width="748"/>
  <unicode hex="0110"/>
  <outline>
    <contour>
      <point x="75" y="406" type="line"/>
      <point x="152" y="406" type="line"/>
      <point x="182" y="654" type="line"/>
      <point x="105" y="654" type="line"/>
      <point x="113" y="714" type="line"/>
      <point x="356" y="714" type="line"/>
      <point x="453" y="714"/>
      <point x="588" y="657"/>
      <point x="672" y="566"/>
      <point x="709" y="451"/>
      <point x="709" y="393" type="qcurve"/>
      <point x="709" y="303"/>
      <point x="641" y="158"/>
      <point x="529" y="56"/>
      <point x="382" y="0"/>
      <point x="303" y="0" type="qcurve"/>
      <point x="25" y="0" type="line"/>
      <point x="33" y="60" type="line"/>
      <point x="110" y="60" type="line"/>
      <point x="146" y="358" type="line"/>
      <point x="69" y="358" type="line"/>
    </contour>
    <contour>
      <point x="305" y="65" type="line"/>
      <point x="372" y="65"/>
      <point x="494" y="110"/>
      <point x="587" y="194"/>
      <point x="641" y="315"/>
      <point x="641" y="390" type="qcurve"/>
      <point x="641" y="445"/>
      <point x="604" y="540"/>
      <point x="533" y="609"/>
      <point x="432" y="648"/>
      <point x="369" y="648" type="qcurve"/>
      <point x="251" y="648" type="line"/>
      <point x="221" y="406" type="line"/>
      <point x="367" y="406" type="line"/>
      <point x="361" y="358" type="line"/>
      <point x="215" y="358" type="line"/>
      <point x="179" y="65" type="line"/>
    </contour>
  </outline>
</glyph>
<glyph name="Emacron" format="1">
  <advance width="647"/>
  <unicode hex="0112"/>
  <outline>
    <contour>
      <point x="556" y="580" type="line"/>
      <point x="564" y="652" type="line"/>
      <point x="248" y="652" type="line"/>
      <point x="216" y="391" type="line"/>
      <point x="558" y="391" type="line"/>
      <point x="550" y="327" type="line"/>
      <point x="208" y="327" type="line"/>
      <point x="176" y="64" type="line"/>
      <point x="507" y="64" type="line"/>
      <point x="516" y="140" type="line"/>
      <point x="581" y="140" type="line"/>
      <point x="567" y="33" type="line"/>
      <point x="563" y="0" type="line"/>
      <point x="22" y="0" type="line"/>
      <point x="30" y="60" type="line"/>
      <point x="107" y="60" type="line"/>
      <point x="179" y="654" type="line"/>
      <point x="102" y="654" type="line"/>
      <point x="110" y="714" type="line"/>
      <point x="637" y="714" type="line"/>
      <point x="632" y="679" type="line"/>
      <point x="633" y="679" type="line"/>
      <point x="620" y="580" type="line"/>
    </contour>
    <contour>
      <point x="294" y="763" type="line"/>
      <point x="299" y="802" type="line"/>
      <point x="531" y="802" type="line"/>
      <point x="526" y="763" type="line"/>
    </contour>
  </outline>
</glyph>
<glyph name="Gcircumflex" format="1">
  <advance width="688"/>
  <unicode hex="011C"/>
  <outline>
    <contour>
      <point x="588" y="562" type="line"/>
      <point x="596" y="630" type="line"/>
      <point x="567" y="644"/>
      <point x="497" y="658"/>
      <point x="464" y="658" type="qcurve"/>
      <point x="399" y="658"/>
      <point x="277" y="604"/>
      <point x="182" y="513"/>
      <point x="124" y="390"/>
      <point x="124" y="321" type="qcurve"/>
      <point x="124" y="266"/>
      <point x="161" y="170"/>
      <point x="229" y="98"/>
      <point x="327" y="57"/>
      <point x="388" y="57" type="qcurve"/>
      <point x="420" y="57"/>
      <point x="497" y="72"/>
      <point x="531" y="87" type="qcurve"/>
      <point x="553" y="267" type="line"/>
      <point x="399" y="267" type="line"/>
      <point x="406" y="327" type="line"/>
      <point x="624" y="327" type="line"/>
      <point x="589" y="43" type="line"/>
      <point x="545" y="19"/>
      <point x="436" y="-8"/>
      <point x="380" y="-8" type="qcurve"/>
      <point x="303" y="-8"/>
      <point x="183" y="40"/>
      <point x="99" y="125"/>
      <point x="55" y="240"/>
      <point x="55" y="308" type="qcurve"/>
      <point x="55" y="396"/>
      <point x="125" y="548"/>
      <point x="242" y="659"/>
      <point x="392" y="722"/>
      <point x="472" y="722" type="qcurve"/>
      <point x="525" y="722"/>
      <point x="630" y="694"/>
      <point x="665" y="671" type="qcurve"/>
      <point x="652" y="562" type="line"/>
    </contour>
    <contour>
      <point x="485" y="891" type="qcurve"/>
      <point x="510" y="860"/>
      <point x="531" y="833" type="qcurve"/>
      <point x="549" y="810"/>
      <point x="583" y="765"/>
      <point x="589" y="757" type="qcurve"/>
      <point x="546" y="757" type="line"/>
      <point x="477" y="827" type="line"/>
      <point x="391" y="757" type="line"/>
      <point x="347" y="757" type="line"/>
      <point x="355" y="765"/>
      <point x="400" y="809"/>
      <point x="424" y="832" type="qcurve"/>
      <point x="452" y="859"/>
    </contour>
  </outline>
</glyph>
<glyph name="Gdotaccent" format="1">
  <advance width="688"/>
  <unicode hex="0120"/>
  <outline>
    <contour>
      <point x="588" y="562" type="line"/>
      <point x="596" y="630" type="line"/>
      <point x="567" y="644"/>
      <point x="497" y="658"/>
      <point x="464" y="658" type="qcurve"/>
      <point x="399" y="658"/>
      <point x="277" y="604"/>
      <point x="182" y="513"/>
      <point x="124" y="390"/>
      <point x="124" y="321" type="qcurve"/>
      <point x="124" y="266"/>
      <point x="161" y="170"/>
      <point x="229" y="98"/>
      <point x="327" y="57"/>
      <point x="388" y="57" type="qcurve"/>
      <point x="420" y="57"/>
      <point x="497" y="72"/>
      <point x="531" y="87" type="qcurve"/>
      <point x="553" y="267" type="line"/>
      <point x="399" y="267" type="line"/>
      <point x="406" y="327" type="line"/>
      <point x="624" y="327" type="line"/>
      <point x="589" y="43" type="line"/>
      <point x="545" y="19"/>
      <point x="436" y="-8"/>
      <point x="380" y="-8" type="qcurve"/>
      <point x="303" y="-8"/>
      <point x="183" y="40"/>
      <point x="99" y="125"/>
      <point x="55" y="240"/>
      <point x="55" y="308" type="qcurve"/>
      <point x="55" y="396"/>
      <point x="125" y="548"/>
      <point x="242" y="659"/>
      <point x="392" y="722"/>
      <point x="472" y="722" type="qcurve"/>
      <point x="525" y="722"/>
      <point x="630" y="694"/>
      <point x="665" y="671" type="qcurve"/>
      <point x="652" y="562" type="line"/>
    </contour>
    <contour>
      <point x="426" y="794" type="qcurve"/>
      <point x="426" y="813"/>
      <point x="454" y="838"/>
      <point x="471" y="838" type="qcurve"/>
      <point x="485" y="838"/>
      <point x="506" y="818"/>
      <point x="506" y="802" type="qcurve"/>
      <point x="506" y="782"/>
      <point x="478" y="758"/>
      <point x="461" y="758" type="qcurve"/>
      <point x="447" y="758"/>
      <point x="426" y="778"/>
    </contour>
  </outline>
</glyph>
<glyph name="Scedilla" format="1">
  <advance width="563"/>
  <unicode hex="015E"/>
  <outline>
    <contour>
      <point x="26" y="61" type="line"/>
      <point x="26" y="62" type="line"/>
      <point x="40" y="173" type="line"/>
      <point x="104" y="173" type="line"/>
      <point x="95" y="100" type="line"/>
      <point x="125" y="82"/>
      <point x="199" y="59"/>
      <point x="237" y="59" type="qcurve"/>
      <point x="267" y="59"/>
      <point x="337" y="76"/>
      <point x="396" y="113"/>
      <point x="436" y="172"/>
      <point x="436" y="213" type="qcurve"/>
      <point x="436" y="255"/>
      <point x="387" y="307"/>
      <point x="314" y="345"/>
      <point x="228" y="376"/>
      <point x="155" y="416"/>
      <point x="106" y="473"/>
      <point x="106" y="519" type="qcurve"/>
      <point x="106" y="557"/>
      <point x="140" y="629"/>
      <point x="202" y="684"/>
      <point x="291" y="718"/>
      <point x="345" y="718" type="qcurve"/>
      <point x="373" y="718"/>
      <point x="431" y="709"/>
      <point x="481" y="696"/>
      <point x="521" y="682"/>
      <point x="531" y="677" type="qcurve"/>
      <point x="517" y="562" type="line"/>
      <point x="453" y="562" type="line"/>
      <point x="462" y="636" type="line"/>
      <point x="434" y="644"/>
      <point x="373" y="656"/>
      <point x="344" y="656" type="qcurve"/>
      <point x="306" y="656"/>
      <point x="243" y="636"/>
      <point x="198" y="602"/>
      <point x="174" y="556"/>
      <point x="174" y="531" type="qcurve"/>
      <point x="174" y="496"/>
      <point x="223" y="453"/>
      <point x="296" y="420"/>
      <point x="382" y="389"/>
      <point x="455" y="342"/>
      <point x="504" y="273"/>
      <point x="504" y="218" type="qcurve"/>
      <point x="504" y="170"/>
      <point x="470" y="89"/>
      <point x="405" y="30"/>
      <point x="311" y="-4"/>
      <point x="251" y="-7" type="qcurve"/>
      <point x="249" y="-21"/>
      <point x="255" y="-38"/>
      <point x="266" y="-49"/>
      <point x="280" y="-57"/>
      <point x="286" y="-61" type="qcurve"/>
      <point x="303" y="-75"/>
      <point x="317" y="-109"/>
      <point x="317" y="-126" type="qcurve"/>
      <point x="317" y="-176"/>
      <point x="255" y="-242"/>
      <point x="205" y="-242" type="qcurve"/>
      <point x="174" y="-242"/>
      <point x="126" y="-208"/>
      <point x="118" y="-173" type="qcurve"/>
      <point x="134" y="-165"/>
      <point x="154" y="-156" type="qcurve"/>
      <point x="158" y="-174"/>
      <point x="185" y="-197"/>
      <point x="206" y="-197" type="qcurve"/>
      <point x="236" y="-197"/>
      <point x="273" y="-157"/>
      <point x="273" y="-128" type="qcurve"/>
      <point x="273" y="-107"/>
      <point x="252" y="-84"/>
      <point x="227" y="-65"/>
      <point x="208" y="-45"/>
      <point x="210" y="-28" type="qcurve"/>
      <point x="213" y="-7" type="line"/>
      <point x="175" y="-6"/>
      <point x="115" y="10"/>
      <point x="70" y="30"/>
      <point x="37" y="52"/>
      <point x="27" y="61" type="qcurve"/>
    </contour>
  </outline>
</glyph>
<glyph name="Tcaron" format="1">
  <advance width="571"/>
  <unicode hex="0164"/>
  <outline>
    <contour>
      <point x="499" y="562" type="line"/>
      <point x="509" y="649" type="line"/>
      <point x="366" y="649" type="line"/>
      <point x="287" y="0" type="line"/>
      <point x="218" y="0" type="line"/>
      <point x="298" y="649" type="line"/>
      <point x="154" y="649" type="line"/>
      <point x="143" y="562" type="line"/>
      <point x="79" y="562" type="line"/>
      <point x="95" y="697" type="line"/>
      <point x="97" y="714" type="line"/>
      <point x="582" y="714" type="line"/>
      <point x="580" y="697" type="line"/>
      <point x="574" y="649" type="line"/>
      <point x="563" y="562" type="line"/>
    </contour>
    <contour>
      <point x="344" y="737" type="qcurve"/>
      <point x="319" y="769"/>
      <point x="298" y="796" type="qcurve"/>
      <point x="280" y="819"/>
      <point x="245" y="863"/>
      <point x="240" y="871" type="qcurve"/>
      <point x="283" y="871" type="line"/>
      <point x="352" y="801" type="line"/>
      <point x="438" y="871" type="line"/>
      <point x="482" y="871" type="line"/>
      <point x="474" y="862"/>
      <point x="429" y="818"/>
      <point x="405" y="795" type="qcurve"/>
      <point x="377" y="768"/>
    </contour>
  </outline>
</glyph>
<glyph name="utilde" format="1">
  <advance width="529"/>
  <unicode hex="0169"/>
  <outline>
    <contour>
      <point x="365" y="103" type="line"/>
      <point x="337" y="53"/>
      <point x="244" y="-9"/>
      <point x="183" y="-9" type="qcurve"/>
      <point x="124" y="-9"/>
      <point x="63" y="57"/>
      <point x="68" y="111" type="qcurve"/>
      <point x="97" y="351" type="line"/>
      <point x="29" y="351" type="line"/>
      <point x="35" y="400" type="line"/>
      <point x="158" y="400" type="line"/>
      <point x="149" y="328" type="line"/>
      <point x="125" y="130" type="line"/>
      <point x="123" y="96"/>
      <point x="161" y="48"/>
      <point x="204" y="46" type="qcurve"/>
      <point x="235" y="46"/>
      <point x="293" y="67"/>
      <point x="338" y="104"/>
      <point x="368" y="156"/>
      <point x="372" y="187" type="qcurve"/>
      <point x="392" y="351" type="line"/>
      <point x="319" y="351" type="line"/>
      <point x="325" y="400" type="line"/>
      <point x="453" y="400" type="line"/>
      <point x="410" y="48" type="line"/>
      <point x="477" y="48" type="line"/>
      <point x="472" y="0" type="line"/>
      <point x="359" y="0" type="line"/>
    </contour>
    <contour>
      <point x="283" y="499" type="qcurve"/>
      <point x="269" y="516"/>
      <point x="248" y="527"/>
      <point x="234" y="527" type="qcurve"/>
      <point x="226" y="527"/>
      <point x="207" y="523"/>
      <point x="188" y="512"/>
      <point x="172" y="492"/>
      <point x="169" y="477" type="qcurve"/>
      <point x="136" y="479" type="line"/>
      <point x="139" y="499"/>
      <point x="160" y="529"/>
      <point x="188" y="550"/>
      <point x="219" y="560"/>
      <point x="234" y="560" type="qcurve"/>
      <point x="257" y="560"/>
      <point x="290" y="542"/>
      <point x="304" y="525" type="qcurve"/>
      <point x="318" y="508"/>
      <point x="340" y="497"/>
      <point x="354" y="497" type="qcurve"/>
      <point x="361" y="497"/>
      <point x="381" y="501"/>
      <point x="400" y="512"/>
      <point x="415" y="532"/>
      <point x="419" y="547" type="qcurve"/>
      <point x="452" y="545" type="line"/>
      <point x="448" y="525"/>
      <point x="428" y="495"/>
      <point x="400" y="474"/>
      <point x="368" y="464"/>
      <point x="353" y="464" type="qcurve"/>
      <point x="331" y="464"/>
      <point x="297" y="483"/>
    </contour>
  </outline>
</glyph>
<glyph name="ubreve" format="1">
  <advance width="529"/>
  <unicode hex="016D"/>
  <outline>
    <contour>
      <point x="472" y="0" type="line"/>
      <point x="359" y="0" type="line"/>
      <point x="365" y="103" type="line"/>
      <point x="337" y="53"/>
      <point x="244" y="-9"/>
      <point x="183" y="-9" type="qcurve"/>
      <point x="124" y="-9"/>
      <point x="63" y="57"/>
      <point x="68" y="111" type="qcurve"/>
      <point x="97" y="351" type="line"/>
      <point x="29" y="351" type="line"/>
      <point x="35" y="400" type="line"/>
      <point x="158" y="400" type="line"/>
      <point x="149" y="328" type="line"/>
      <point x="125" y="130" type="line"/>
      <point x="123" y="96"/>
      <point x="161" y="48"/>
      <point x="204" y="46" type="qcurve"/>
      <point x="235" y="46"/>
      <point x="293" y="67"/>
      <point x="338" y="104"/>
      <point x="368" y="156"/>
      <point x="372" y="187" type="qcurve"/>
      <point x="392" y="351" type="line"/>
      <point x="319" y="351" type="line"/>
      <point x="325" y="400" type="line"/>
      <point x="453" y="400" type="line"/>
      <point x="410" y="48" type="line"/>
      <point x="477" y="48" type="line"/>
    </contour>
    <contour>
      <point x="281" y="500" type="qcurve"/>
      <point x="248" y="500"/>
      <point x="192" y="524"/>
      <point x="153" y="566"/>
      <point x="134" y="624"/>
      <point x="137" y="657" type="qcurve"/>
      <point x="171" y="657" type="line"/>
      <point x="169" y="631"/>
      <point x="183" y="587"/>
      <point x="213" y="553"/>
      <point x="257" y="534"/>
      <point x="284" y="534" type="qcurve"/>
      <point x="312" y="534"/>
      <point x="360" y="553"/>
      <point x="398" y="587"/>
      <point x="422" y="631"/>
      <point x="426" y="657" type="qcurve"/>
      <point x="461" y="657" type="line"/>
      <point x="457" y="624"/>
      <point x="424" y="566"/>
      <point x="375" y="524"/>
      <point x="314" y="500"/>
    </contour>
  </outline>
</glyph>
<glyph name="Uogonek" format="1">
  <advance width="747"/>
  <unicode hex="0172"/>
  <outline>
    <contour>
      <point x="322" y="714" type="line"/>
      <point x="314" y="654" type="line"/>
      <point x="234" y="654" type="line"/>
      <point x="185" y="246" type="line"/>
      <point x="179" y="203"/>
      <point x="198" y="133"/>
      <point x="242" y="84"/>
      <point x="307" y="57"/>
      <point x="347" y="57" type="qcurve"/>
      <point x="386" y="57"/>
      <point x="458" y="84"/>
      <point x="514" y="133"/>
      <point x="551" y="203"/>
      <point x="556" y="246" type="qcurve"/>
      <point x="606" y="654" type="line"/>
      <point x="614" y="714" type="line"/>
      <point x="761" y="714" type="line"/>
      <point x="753" y="654" type="line"/>
      <point x="674" y="654" type="line"/>
      <point x="625" y="243" type="line"/>
      <point x="618" y="189"/>
      <point x="573" y="101"/>
      <point x="505" y="37"/>
      <point x="418" y="-2"/>
      <point x="370" y="-6" type="qcurve"/>
      <point x="367" y="-28" type="line"/>
      <point x="365" y="-47"/>
      <point x="336" y="-67"/>
      <point x="304" y="-88"/>
      <point x="278" y="-116"/>
      <point x="278" y="-143" type="qcurve"/>
      <point x="278" y="-166"/>
      <point x="305" y="-197"/>
      <point x="329" y="-197" type="qcurve"/>
      <point x="351" y="-197"/>
      <point x="383" y="-174"/>
      <point x="391" y="-156" type="qcurve"/>
      <point x="399" y="-160"/>
      <point x="416" y="-168"/>
      <point x="424" y="-173" type="qcurve"/>
      <point x="408" y="-208"/>
      <point x="350" y="-242"/>
      <point x="319" y="-242" type="qcurve"/>
      <point x="278" y="-242"/>
      <point x="233" y="-192"/>
      <point x="233" y="-151" type="qcurve"/>
      <point x="233" y="-127"/>
      <point x="254" y="-81"/>
      <point x="283" y="-61" type="qcurve"/>
      <point x="290" y="-57"/>
      <point x="305" y="-49"/>
      <point x="318" y="-38"/>
      <point x="329" y="-22"/>
      <point x="332" y="-8" type="qcurve"/>
      <point x="280" y="-7"/>
      <point x="194" y="29"/>
      <point x="135" y="93"/>
      <point x="109" y="185"/>
      <point x="116" y="243" type="qcurve"/>
      <point x="166" y="654" type="line"/>
      <point x="86" y="654" type="line"/>
      <point x="94" y="714" type="line"/>
    </contour>
  </outline>
</glyph>
<glyph name="uogonek" format="1">
  <advance width="530"/>
  <unicode hex="0173"/>
  <outline>
    <contour>
      <point x="473" y="0" type="line"/>
      <point x="360" y="0" type="line"/>
      <point x="366" y="103" type="line"/>
      <point x="338" y="53"/>
      <point x="245" y="-9"/>
      <point x="184" y="-9" type="qcurve"/>
      <point x="125" y="-9"/>
      <point x="64" y="57"/>
      <point x="69" y="111" type="qcurve"/>
      <point x="98" y="351" type="line"/>
      <point x="30" y="351" type="line"/>
      <point x="36" y="400" type="line"/>
      <point x="159" y="400" type="line"/>
      <point x="150" y="328" type="line"/>
      <point x="126" y="130" type="line"/>
      <point x="124" y="96"/>
      <point x="162" y="48"/>
      <point x="205" y="46" type="qcurve"/>
      <point x="236" y="46"/>
      <point x="294" y="67"/>
      <point x="339" y="104"/>
      <point x="369" y="156"/>
      <point x="373" y="187" type="qcurve"/>
      <point x="391" y="333" type="line"/>
      <point x="393" y="351" type="line"/>
      <point x="320" y="351" type="line"/>
      <point x="326" y="400" type="line"/>
      <point x="454" y="400" type="line"/>
      <point x="411" y="48" type="line"/>
      <point x="478" y="48" type="line"/>
    </contour>
    <contour>
      <point x="399" y="0" type="line"/>
      <point x="361" y="0" type="line"/>
      <point x="360" y="-7" type="line"/>
      <point x="358" y="-21"/>
      <point x="347" y="-38"/>
      <point x="333" y="-49"/>
      <point x="318" y="-57"/>
      <point x="311" y="-61" type="qcurve"/>
      <point x="282" y="-81"/>
      <point x="261" y="-127"/>
      <point x="261" y="-151" type="qcurve"/>
      <point x="261" y="-192"/>
      <point x="306" y="-242"/>
      <point x="347" y="-242" type="qcurve"/>
      <point x="378" y="-242"/>
      <point x="436" y="-208"/>
      <point x="452" y="-173" type="qcurve"/>
      <point x="444" y="-168"/>
      <point x="427" y="-160"/>
      <point x="419" y="-156" type="qcurve"/>
      <point x="411" y="-174"/>
      <point x="379" y="-197"/>
      <point x="357" y="-197" type="qcurve"/>
      <point x="333" y="-197"/>
      <point x="306" y="-166"/>
      <point x="306" y="-143" type="qcurve"/>
      <point x="306" y="-116"/>
      <point x="332" y="-88"/>
      <point x="364" y="-67"/>
      <point x="393" y="-47"/>
      <point x="395" y="-28" type="qcurve"/>
    </contour>
  </outline>
</glyph>
<glyph name="florin" format="1">
  <advance width="346"/>
  <unicode hex="0192"/>
  <outline>
    <contour>
      <point x="175" y="345" type="line"/>
      <point x="143" y="79" type="line"/>
      <point x="128" y="-43"/>
      <point x="-4" y="-166"/>
      <point x="-101" y="-169" type="qcurve"/>
      <point x="-95" y="-117" type="line"/>
      <point x="-20" y="-114"/>
      <point x="77" y="-12"/>
      <point x="88" y="79" type="qcurve"/>
      <point x="120" y="345" type="line"/>
      <point x="52" y="345" type="line"/>
      <point x="58" y="399" type="line"/>
      <point x="127" y="399" type="line"/>
      <point x="141" y="517" type="line"/>
      <point x="156" y="639"/>
      <point x="289" y="762"/>
      <point x="386" y="766" type="qcurve"/>
      <point x="379" y="713" type="line"/>
      <point x="305" y="711"/>
      <point x="208" y="608"/>
      <point x="197" y="517" type="qcurve"/>
      <point x="182" y="399" type="line"/>
      <point x="313" y="399" type="line"/>
      <point x="306" y="345" type="line"/>
    </contour>
  </outline>
</glyph>
<glyph name="caron" format="1">
  <advance width="450"/>
  <unicode hex="02C7"/>
  <outline>
    <contour>
      <point x="293" y="483" type="qcurve"/>
      <point x="268" y="515"/>
      <point x="247" y="542" type="qcurve"/>
      <point x="229" y="565"/>
      <point x="194" y="609"/>
      <point x="189" y="617" type="qcurve"/>
      <point x="232" y="617" type="line"/>
      <point x="301" y="547" type="line"/>
      <point x="387" y="617" type="line"/>
      <point x="431" y="617" type="line"/>
      <point x="423" y="608"/>
      <point x="378" y="564"/>
      <point x="354" y="541" type="qcurve"/>
      <point x="326" y="514"/>
    </contour>
  </outline>
</glyph>
<glyph name="emdash" format="1">
  <advance width="638"/>
  <unicode hex="2014"/>
  <outline>
    <contour>
      <point x="53" y="173" type="line"/>
      <point x="60" y="230" type="line"/>
      <point x="566" y="230" type="line"/>
      <point x="559" y="173" type="line"/>
    </contour>
  </outline>
</glyph>
<glyph name="quoteleft" format="1">
  <advance width="182"/>
  <unicode hex="2018"/>
  <outline>
    <contour>
      <point x="169" y="595" type="qcurve"/>
      <point x="155" y="584"/>
      <point x="138" y="573" type="qcurve"/>
      <point x="112" y="600"/>
      <point x="97" y="675"/>
      <point x="110" y="717" type="qcurve"/>
      <point x="149" y="710" type="line"/>
      <point x="138" y="675"/>
      <point x="150" y="615"/>
    </contour>
  </outline>
</glyph>
<glyph name="quotedblbase" format="1">
  <advance width="299"/>
  <unicode hex="201E"/>
  <outline>
    <contour>
      <point x="138" y="-51" type="qcurve"/>
      <point x="112" y="-29" type="line"/>
      <point x="136" y="-9"/>
      <point x="162" y="51"/>
      <point x="160" y="86" type="qcurve"/>
      <point x="201" y="93" type="line"/>
      <point x="204" y="51"/>
      <point x="170" y="-24"/>
    </contour>
    <contour>
      <point x="34" y="-51" type="qcurve"/>
      <point x="27" y="-46"/>
      <point x="14" y="-35"/>
      <point x="8" y="-29" type="qcurve"/>
      <point x="31" y="-9"/>
      <point x="57" y="51"/>
      <point x="55" y="86" type="qcurve"/>
      <point x="96" y="93" type="line"/>
      <point x="99" y="51"/>
      <point x="66" y="-24"/>
    </contour>
  </outline>
</glyph>
<glyph name="dagger" format="1">
  <advance width="342"/>
  <unicode hex="2020"/>
  <outline>
    <contour>
      <point x="111" y="32" type="line"/>
      <point x="156" y="399" type="line"/>
      <point x="78" y="399" type="line"/>
      <point x="85" y="456" type="line"/>
      <point x="163" y="456" type="line"/>
      <point x="181" y="596" type="line"/>
      <point x="240" y="596" type="line"/>
      <point x="222" y="456" type="line"/>
      <point x="301" y="456" type="line"/>
      <point x="293" y="399" type="line"/>
      <point x="215" y="399" type="line"/>
      <point x="170" y="32" type="line"/>
    </contour>
  </outline>
</glyph>
<glyph name="integral" format="1">
  <advance width="321"/>
  <unicode hex="222B"/>
  <outline>
    <contour>
      <point x="175" y="633" type="line"/>
      <point x="181" y="679"/>
      <point x="204" y="728"/>
      <point x="236" y="750"/>
      <point x="276" y="752"/>
      <point x="297" y="752" type="qcurve"/>
      <point x="351" y="752" type="line"/>
      <point x="343" y="695" type="line"/>
      <point x="294" y="695" type="line"/>
      <point x="279" y="695"/>
      <point x="257" y="685"/>
      <point x="242" y="661"/>
      <point x="232" y="619"/>
      <point x="228" y="588" type="qcurve"/>
      <point x="154" y="-18" type="line"/>
      <point x="148" y="-70"/>
      <point x="125" y="-124"/>
      <point x="93" y="-148"/>
      <point x="53" y="-150"/>
      <point x="31" y="-150" type="qcurve"/>
      <point x="-23" y="-150" type="line"/>
      <point x="-16" y="-93" type="line"/>
      <point x="33" y="-93" type="line"/>
      <point x="49" y="-93"/>
      <point x="70" y="-83"/>
      <point x="85" y="-59"/>
      <point x="95" y="-18"/>
      <point x="99" y="14" type="qcurve"/>
    </contour>
  </outline>
</glyph>
<glyph name="lessequal" format="1">
  <advance width="561"/>
  <unicode hex="2264"/>
  <outline>
    <contour>
      <point x="493" y="297" type="line"/>
      <point x="483" y="218" type="line"/>
      <point x="74" y="473" type="line"/>
      <point x="193" y="536"/>
      <point x="427" y="664"/>
      <point x="546" y="727" type="qcurve"/>
      <point x="536" y="649" type="line"/>
      <point x="209" y="473" type="line"/>
    </contour>
    <contour>
      <point x="427" y="74" type="line"/>
      <point x="64" y="74" type="line"/>
      <point x="71" y="131" type="line"/>
      <point x="434" y="131" type="line"/>
    </contour>
  </outline>
</glyph>
<glyph name="fi" format="1">
  <advance width="584"/>
  <unicode hex="FB01"/>
  <outline>
    <contour>
      <point x="42" y="351" type="line"/>
      <point x="48" y="400" type="line"/>
      <point x="117" y="400" type="line"/>
      <point x="131" y="517" type="line"/>
      <point x="146" y="639"/>
      <point x="278" y="762"/>
      <point x="375" y="766" type="qcurve"/>
      <point x="369" y="717" type="line"/>
      <point x="332" y="716"/>
      <point x="270" y="687"/>
      <point x="223" y="635"/>
      <point x="192" y="562"/>
      <point x="186" y="517" type="qcurve"/>
      <point x="172" y="400" type="line"/>
      <point x="505" y="400" type="line"/>
      <point x="499" y="351" type="line"/>
      <point x="464" y="67" type="line"/>
      <point x="461" y="48" type="line"/>
      <point x="534" y="48" type="line"/>
      <point x="529" y="0" type="line"/>
      <point x="333" y="0" type="line"/>
      <point x="339" y="48" type="line"/>
      <point x="407" y="48" type="line"/>
      <point x="409" y="68" type="line"/>
      <point x="444" y="351" type="line"/>
      <point x="165" y="351" type="line"/>
      <point x="131" y="67" type="line"/>
      <point x="128" y="48" type="line"/>
      <point x="229" y="48" type="line"/>
      <point x="223" y="0" type="line"/>
      <point x="-1" y="0" type="line"/>
      <point x="5" y="48" type="line"/>
      <point x="73" y="48" type="line"/>
      <point x="110" y="351" type="line"/>
    </contour>
  </outline>
</glyph>
<glyph name="fl" format="1">
  <advance width="584"/>
  <unicode hex="FB02"/>
  <outline>
    <contour>
      <point x="42" y="351" type="line"/>
      <point x="48" y="400" type="line"/>
      <point x="117" y="400" type="line"/>
      <point x="131" y="517" type="line"/>
      <point x="146" y="639"/>
      <point x="278" y="762"/>
      <point x="375" y="766" type="qcurve"/>
      <point x="550" y="766" type="line"/>
      <point x="464" y="67" type="line"/>
      <point x="465" y="67" type="line"/>
      <point x="462" y="48" type="line"/>
      <point x="535" y="48" type="line"/>
      <point x="529" y="0" type="line"/>
      <point x="333" y="0" type="line"/>
      <point x="339" y="48" type="line"/>
      <point x="407" y="48" type="line"/>
      <point x="489" y="717" type="line"/>
      <point x="369" y="717" type="line"/>
      <point x="332" y="716"/>
      <point x="270" y="687"/>
      <point x="223" y="635"/>
      <point x="192" y="562"/>
      <point x="186" y="517" type="qcurve"/>
      <point x="172" y="400" type="line"/>
      <point x="303" y="400" type="line"/>
      <point x="296" y="351" type="line"/>
      <point x="165" y="351" type="line"/>
      <point x="131" y="67" type="line"/>
      <point x="128" y="48" type="line"/>
      <point x="229" y="48" type="line"/>
      <point x="223" y="0" type="line"/>
      <point x="-1" y="0" type="line"/>
      <point x="5" y="48" type="line"/>
      <point x="73" y="48" type="line"/>
      <point x="110" y="351" type="line"/>
    </contour>
  </outline>
</glyph>
